<svg id="Слой_1" data-name="Слой 1" xmlns="http://www.w3.org/2000/svg" viewBox="0 0 688.89 482.47"><defs><style>.cls-1{fill:#3b4095;}.cls-2{fill:#b01842;}</style></defs><title>delta-logo</title><path class="cls-1" d="M677.2,440.7c0-2.92-.77-5.66-3.32-7.27-2.07-1.26-5.21-1.26-7.5-1.26H653v27.69l5.34,0V448.24h5.51L670,459.9l6.37,0-6.78-11.62C674.55,447.88,677.2,445.77,677.2,440.7Zm-10.73,3.36h-8.16v-7.94l6.77.05c2.74,0,6.69-.05,6.69,3.67C671.77,443.34,669.57,444.11,666.47,444.06Z" transform="translate(-0.36 -5.56)"/><path class="cls-1" d="M663.38,420.1a25.8,25.8,0,1,0,25.87,25.74A25.81,25.81,0,0,0,663.38,420.1Zm.13,46.71a20.87,20.87,0,1,1,20.82-20.91A20.86,20.86,0,0,1,663.51,466.81Z" transform="translate(-0.36 -5.56)"/><path class="cls-2" d="M625.77,484c.09-1.57-.85-3.09-3.45-4.12-88.67-38.37-198.66-73.73-308.59-73.73h-1.4c-109.93,0-219.87,35.36-308.45,73.68-2.56,1.08-3.5,2.6-3.5,4.17A3.73,3.73,0,0,0,3.79,488H622.23a3.8,3.8,0,0,0,3.54-4.09Z" transform="translate(-0.36 -5.56)"/><path class="cls-1" d="M313,342.92c-98.5.13-194.71,41.64-296.3,95.53l-5.52,2.83a6.06,6.06,0,0,1-2.82.72,6.28,6.28,0,0,1-6.15-6.28,5.84,5.84,0,0,1,1.21-3.55L6.26,428C33.58,387.66,253,85.12,302.6,12.56c3.23-4.93,6.41-7,10.41-7s7.18,2.07,10.54,7C373,85.12,592.43,387.66,619.85,428l2.92,4.18a5.84,5.84,0,0,1,1.16,3.54,6.28,6.28,0,0,1-9,5.61l-5.56-2.87C507.71,384.56,411.64,342.83,313,342.92Z" transform="translate(-0.36 -5.56)"/></svg>