<svg xmlns="http://www.w3.org/2000/svg" viewBox="0 0 2279.44 2196.82"><defs><style>.cls-1{fill:#fff;}.cls-1,.cls-2,.cls-3,.cls-4{fill-rule:evenodd;}.cls-2{fill:#52368b;}.cls-3{fill:#a5418d;}.cls-4{fill:#df927b;}</style></defs><title>Ресурс 1</title><g id="Слой_2" data-name="Слой 2"><g id="Слой_1-2" data-name="Слой 1"><path class="cls-1" d="M2183.67,777.3c0-9.39,1.88-18.76,1.88-28.15a273.74,273.74,0,0,0-20.65-103.27c13.15-22.53,18.77-45.06,18.77-71.35,0-13.13-1.88-26.27-5.63-41.3-13.15-48.82-18.79-95.76-18.79-118.29v-7.51l5.65-41.31-41.32,9.39c-24.42,3.76-52.57-11.27-77-26.29l-28.17-13.13c-15-7.51-52.57-24.41-92-20.65-5.63-39.43-45.07-103.27-165.21-114.54-52.59-3.76-90.12-16.9-99.53-22.53l-24.39-20.64-16.9,24.4C1504,73.23,1299.3,5.64,1156.6,0,1104,0,844.92,0,689.07,163.35c-107-9.39-371.76,50.7-544.5,430-7.51,16.9-20.66,48.82-1.88,69.46,5.65,7.51,16.9,13.14,31.92,11.27-7.51,5.63-15,11.28-20.65,16.9C35.67,811.14,0,935.06,0,1038.32c0,120.18,45.07,212.19,62,240.33,9.39,18.79,20.64,37.56,43.19,41.32,15,3.75,28.17-1.88,39.44-7.52-22.53,31.94-28.17,65.73-28.17,95.78v15c7.51,174.61,208.41,375.51,351.11,443.1,26.28,11.27,46.94,20.67,67.59,7.52,15-9.4,16.9-26.29,16.9-39.44C570.79,1900.14,612.1,1949,676,1977.12c39.42,16.9,82.61,28.17,131.43,37.56,107,22.52,219.68,46.94,292.9,163.35,9.39,15,22.53,18.79,31.92,18.79,7.51,0,20.64-3.78,28.17-20.68,13.15-28.17,22.51-56.31,30-82.6a61.32,61.32,0,0,0,11.27,15c20.65,16.9,43.17,1.88,63.84-13.15,112.66-78.86,242.2-116.41,328.58-137.07,155.84-37.54,270.37-82.6,353-138.94,174.61-114.52,212.14-261,219.68-338,1.88-9.38,1.88-18.77,1.88-26.26,0-54.46-16.9-105.15-50.69-144.59h1.88c30,20.67,58.21,33.81,92-13.13,31.92-43.19,67.59-133.31,67.59-238.46,0-86.4-24.41-185.92-95.77-281.68Z"/><path class="cls-2" d="M1445.77,2044.7h20.66v45h15v-45h20.63v-11.27h-56.32Zm95.76,9.36-18.79-20.63H1511.5v56.32h13.12v-33.81l15,16.93h1.89l16.9-16.93v33.81h13.13v-56.32h-11.25l-18.78,20.63Zm593.32-773.57c26.26,18.79,31.92,22.54,50.68-5.63,48.82-63.83,127.68-289.14-35.66-491.93,7.49-50.7,0-103.26-20.68-144.57-11.24,16.9-28.14,30-46.93,41.31-16.9-26.28-50.69-39.43-80.74-39.43-18.77,0-13.15,5.63-3.75,9.39,123.93,52.58,78.86,197.15,63.84,227.19-16.9,31.92-13.15,71.35-13.15,71.35-39.42-11.27-73.23-1.88-105.15,3.76-62,9.39-101.37-1.88-133.29-16.9-26.29-11.27-65.7-37.56-73.23-88.25,0-9.39-5.63-15-9.37,1.88-7.53,28.16-1.9,63.84,18.76,86.38-22.54,112.66-244.09,105.15-244.09,105.15-13.15-43.19-92-60.09-127.67-110.79-3.78,125.79-54.46,217.8-78.86,249.72-1.89,3.75-1.89,7.5,3.75,5.63,33.79-5.63,78.86-41.3,99.5-69.45,5.66-7.53,13.16-3.78,13.16,3.74,35.66,353-99.51,754.81-170.87,912.52-20.65,43.19-41.29,67.58,5.63,33.78,112.68-78.85,242.22-118.29,338-140.81,189.63-46.94,289.16-95.75,343.62-133.32,138.92-93.87,197.13-214,208.4-317.3,16.9-180.25-169-234.7-174.61-238.48-7.52-1.88-3.78-5.62,3.75-7.49,52.56-1.88,114.52,15,169,52.55Z"/><path class="cls-3" d="M298.55,1227.93c5.64,0,11.27,5.62,3.76,7.49-154,60.09-159.59,127.7-157.71,182.14,7.51,157.71,199,353,334.22,416.83,31.92,15,45.05,20.68,41.31-16.9-1.88-92,37.56-157.71,60.09-184,3.76-5.63,9.39-5.63,9.39,1.88-1.89,5.65-77,232.82,95.75,309.81,123.93,54.46,324.83,31.91,439.35,212.17,3.76,7.5,5.63,5.63,7.51,0,107-231,0-445-18.78-491.94,54.45-30,105.16-67.59,139-108.9,26.26-31.92,35.66-54.43,43.19-69.45s3.74-24.42-9.41-16.9c-86.35,50.68-262.87,118.27-514.47,69.45,0,0-69.47-9.4-58.21-80.74,1.88-18.76,11.27-39.44,20.65-58.2,1.88-7.5,11.27-33.79,1.88-46.94-7.51-13.15-13.14-22.52-7.51-37.55,3.76-13.15,20.65-28.17,47-33.78,22.53-7.53,63.84-9.41,97.63-7.53,7.5,1.88,16.89,0,22.52,0,9.39-1.88,15-9.37,13.16-18.76-3.77-5.63-7.51-11.28-15-30-5.65,13.15-11.27,16.9-26.29,15s-45.07-13.15-73.23-20.65-45.07-1.9-62,20.65c-15,22.51-15,0-13.15-7.53,1.88-13.12,18.78-30,20.66-39.41s3.76-20.65-20.66-37.56q-22.53-16.87-33.78-28.15c-22.53-22.54-26.28-45.07,16.89-80.75,30-26.27,97.64-95.75,116.42-137.05,3.76-5.64,20.66-31.92,1.88-60.09-13.14-18.78-15-22.52-18.78-30-11.27-18.78-3.76-35.68,13.14-62,7.51-11.27,13.14-26.29,30-78.87,20.66-63.84,58.21-129.55,107-169,20.65-41.31,7.51-107,90.13-180.24,65.72-58.21,291-133.32,557.65-92,9.4-5.64,15-13.15,20.67-18.78-99.53-107-313.58-187.76-465.64-193.39C1049.6,22.51,826.17,45.06,698.5,189.63c-93.89-16.9-358.63,37.55-527.61,411.19-15,35.67-11.27,45.06,11.27,37.55,71.35-26.29,135.18-26.29,167.12-18.78,13.13,1.88,7.5,7.51,3.74,7.51-1.88,0-7.51,1.88-16.9,3.76-33.8,7.51-118.29,35.67-163.35,78.87C-76.95,959.45,69.5,1231.7,86.4,1259.87c15,30,24.41,35.67,48.82,16.9s80.71-47,163.33-48.85Z"/><path class="cls-3" d="M822.4,1143.45c-7.51,13.13-22.53,30-56.33,9.38-30-16.9-37.56-20.65-52.58-28.17-3.76-1.88-5.63-3.75-5.63-7.5,1.88-1.88,7.51-1.88,16.9-1.88,16.9,3.75,45.07,11.25,50.7,13.15,7.51,0,24.41,3.75,31.92-3.77,7.51-5.63,13.14-9.38,16.9-3.75C828,1124.65,824.28,1139.67,822.4,1143.45Z"/><path class="cls-4" d="M2127.33,399.91c-1.88,20.65,3.77,80.74,20.67,137.06,16.9,60.08-13.15,112.66-65.73,142.7-16.9-26.28-50.69-39.43-80.74-39.43-18.76,0-13.15,5.63-3.75,9.39,123.93,52.58,78.86,197.15,63.84,227.19-16.9,31.92-13.15,71.35-13.15,71.35-39.42-11.27-73.23-1.88-105.15,3.76-62,9.39-101.37-1.88-133.29-16.9-26.29-11.27-65.7-37.56-73.22-88.25,0-9.39-5.63-15-9.38,1.88-7.52,28.16-1.89,63.84,18.77,86.38-22.54,112.66-244.09,105.15-244.09,105.15-15-48.82-116.43-63.84-138.95-135.19-11.27-31.91-1.88-67.59-1.88-67.59,58.21,13.15,92-15,110.77-37.55,11.28-13.15,1.89-15-5.62-9.39-73.23,46.94-142.72,0-155.85-65.72-18.79-71.35-90.13-93.87-90.13-93.87,50.69-31.92,37.55-88.25,63.84-135.19,69.45-122,169-86.36,169-86.36,9.38,30,37.55,50.69,67.59,60.07,16.9,3.76,13.15-3.76,5.65-9.39-69.47-50.7-52.59-131.43,3.75-169,95.76-65.72,112.66-93.89,112.66-93.89,16.9,13.14,63.84,24.41,114.52,30,110.8,9.39,137.07,67.58,139,88.24-13.13,7.51-35.67,28.16-46.94,62-3.75,16.9,3.77,13.14,9.4,5.64,43.19-58.21,95.76-46.95,146.44-24.42,31.94,15,77,50.7,122,41.31Z"/><path class="cls-2" d="M1453.29,409.3c9.37,30,37.55,50.7,67.58,60.08,7.53,1.88,11.27,1.88,11.27,0s0-3.77-1.88-5.63c0-1.88-1.88-1.88-3.74-3.76-69.48-50.7-52.6-131.44,3.74-169,30-20.66,52.57-37.56,69.46-52.58-266.62-41.31-491.93,33.79-557.65,92-82.62,73.23-69.47,138.93-90.13,180.24,35.67-26.29,73.23-43.19,120.17-52.58,118.29-26.27,178.37,16.9,206.51,50.7,1.9-3.76,3.78-9.39,5.66-13.15,69.48-122,169-86.34,169-86.34Zm167.1,343.59c0,5.65,1.88,7.51,5.63,1.89,18.77-22.53,48.82-58.21,97.62-78.87,56.34-24.41,82.63-62,92-99.51,3.75-20.65,3.75-58.21,26.29-86.36,7.5-9.39-1.88-9.39-9.4-7.51-7.5,3.76-43.19,24.41-62,58.21-22.52-15-26.26-39.43-28.17-54.45,0-5.64-3.75-7.51-7.5-1.88-16.9,20.66-24.42,45.07-26.29,60.07,0,0-16.9-7.51-16.9-37.54,1.88-3.77-1.88-1.88-3.74,0-22.55,26.29-13.16,56.32-13.16,61.95,0,0-31.91-9.39-77-5.63-13.16-26.29-62-24.41-62,7.51,0,28.17,48.82,39.44,62,11.27,0,0,63.83-7.51,131.44,33.8,5.63,5.64,9.38,9.39,5.63,13.14-1.88,1.88-11.27,0-20.64-5.63-13.16-3.76-99.53-33.8-155.85,13.14-1.89,3.76-1.89,5.64,1.88,5.64,13.15,0,41.3,3.76,52.57,20.65-16.9,7.51-41.32,24.41-50.69,69.47-3.75,11.27,3.75,11.27,9.38,5.63,3.77-5.63,39.44-37.55,54.46-39.43,0,0-9.4,22.53-5.63,54.44Z"/><path class="cls-3" d="M1044,814.86c-20.65-13.15-50.68-13.15-56.33-13.15-5.64-1.88-7.51-7.51,1.88-11.27,11.28-5.64,33.8-1.88,33.8-5.64,1.88-3.75-3.76-11.26-20.64-16.9-16.9-7.51-54.45-5.63-73.23-1.88-18.78,1.88-35.67-15-5.63-39.43,30-26.29,71.35-20.66,88.25-22.53s9.39-9.39,5.64-11.27c-5.64-1.88-28.17-15-65.72-13.15-39.44,3.76-73.23,26.29-93.89,48.82-11.26,13.15-15,26.29-16.9,37.56-1.88,20.65,13.15,28.16,31.92,20.65,7.51-3.76,13.15-3.76,20.66-3.76,7.51,1.88,13.14,7.51,9.39,11.27-3.76,1.88-7.51,7.51-11.27,18.78-1.88,13.15,5.64,22.53,15,33.8,3.76,7.51,5.63,11.27,7.51,16.9s0,9.39-5.63,13.13c-5.64,5.65-1.88,13.16,11.26,9.4,15-3.75,22.53-7.51,33.8-16.9,15-13.14,15-20.65,24.41-31.92,11.25-11.26,45-11.26,63.83-7.51,20.65,1.89,24.4-1.86,1.87-15Z"/></g></g></svg>