<svg xmlns="http://www.w3.org/2000/svg" viewBox="0 0 427.1 427.62"><defs><style>.cls-1{fill:#efae00;}</style></defs><title>Ресурс 1</title><g id="Слой_2" data-name="Слой 2"><g id="Слой_1-2" data-name="Слой 1"><path class="cls-1" d="M427.1,214.33c0,118.38-95.43,213.29-213.81,213.29C95.43,427.62,0,332.71,0,214.85,0,94.39,95.43,0,216.94,0,332.19,0,427.1,97,427.1,214.33Zm-405.2,0c0,105.87,85.53,190.86,191.39,190.86,105.34,0,191.39-84.48,191.39-190.34,0-107.95-84.48-192.43-193-192.43C108,22.42,21.9,109,21.9,214.33Zm144.46-8.87-2.61,5.22c-9.39-2.09-27.63-8.87-46.41-17.21l-2.61,4.69,7.82,4.18c27.12,14.07,36.51,17.2,51.63,17.2,31.81,0,55.8-17.73,67.27-49.54,19.3-4.17,44.33-5.73,74.57-5.73A562.18,562.18,0,0,1,392.16,169l-7.3,8.87c-13-1.57-37.55-3.13-54.76-3.13-21.38,0-33.89,0-41.2.52L285.78,183c17.21-1,23.46-1,37-1,23.47,0,41.72,1,56.84,2.09l-7.3,9.91c-27.11-1.05-39.11-1.57-59.44-1.57-11,0-19.3.52-32.34,1l-3.64,7.82c11.47-1,27.63-1.56,43.8-1.56s34.94.52,45.89,1l-7.3,9.39c-7.82-.53-22.43-.53-33.9-.53-18.25,0-41.72,1.05-53.19,2.61L268.57,219c21.9-2.08,35.46-3.12,59.45-3.12a232.29,232.29,0,0,1,26.08,1l-8.35,9.9c-14.6-1-19.29-1-25-1-40.16,0-66.75,5.74-93.35,20.86,24.51,24.51,64.66,41.2,101.17,41.2,3.13,0,4.69,0,12.52-.52l-17.21,17.73c-96.48-25.55-113.69-32.33-202.34-85C86.57,200.25,57.89,186.69,35,179.91L38.07,169a204.77,204.77,0,0,1,28.17,8.35l5.21-12,94.91,40.15"/></g></g></svg>