<svg xmlns="http://www.w3.org/2000/svg" viewBox="0 0 143.88 93.87"><defs><style>.cls-1{fill:#f0bc44;stroke:#f0bc44;stroke-miterlimit:3.86;stroke-width:2.89px;}.cls-2{fill:#fff;}.cls-3{fill:#c74d44;}</style></defs><title>Ресурс 1</title><g id="Слой_2" data-name="Слой 2"><polygon class="cls-1" points="141.76 1.45 83.68 1.45 3.21 92.43 105.97 92.43 141.76 1.45 141.76 1.45"/><path class="cls-2" d="M102.32,60.08c.16-.68.28-1.58.35-2.13a26.24,26.24,0,0,0-1.28-4.34,11,11,0,0,1-.5-3.47,10.31,10.31,0,0,1,.71-1.82,7.84,7.84,0,0,1,1.07-1.66,14,14,0,0,0,2.3-4.73,17.53,17.53,0,0,1,1.93-3.16,6.82,6.82,0,0,1,0,2c-.07.4,2-.39,2.14-.55a14.22,14.22,0,0,1-1,2.84c-.18.24.93,0,1.22-.16s1,.28.93.48a37,37,0,0,1-3.65,3.71,4.26,4.26,0,0,0-1.29,1.58c-.25.43-.39,2.88,0,2.29A12.13,12.13,0,0,1,107.76,49c.21-.08,1.07.64,1.07.64s-4.08,4.69-4.15,5.2,1.19-.26,1.19-.26-.51,5.12-.69,6.18a6.58,6.58,0,0,1-1.07,2.53,4.27,4.27,0,0,1-2.15.95l-1.95.32a14.05,14.05,0,0,1,.3,2.83,8,8,0,0,1-1.64,3.56,18.62,18.62,0,0,0-2,2.6,5.64,5.64,0,0,0-.21,3.24A17.88,17.88,0,0,1,98,80.53a3.35,3.35,0,0,1-.5,1.57,23.51,23.51,0,0,0-1.21,3.24c-.18.75-.36,3-.36,3a26.54,26.54,0,0,1-.93,2.6,3.18,3.18,0,0,1-2.08,1c-.75-.12-1.72.08-1.86-.16a1.89,1.89,0,0,1-.28-1.1,11.62,11.62,0,0,1,1.71-2,18.83,18.83,0,0,0,1.79-4,13.73,13.73,0,0,0,.43-3.79c-.14-.35-2.57-2.6-2.93-3.23A30.93,30.93,0,0,1,90.34,74c-.4-1.14-1.76.18-2.12.62s-1.15,2.13-.93,2.76,1.07,1.66,1.07,1.81-.68,1.23-1,1.27-1.4.19-1.93.31-4.3,1.58-4.51,1.58H79.77c-.32,0-.68,1.86-.78,2.13a2.75,2.75,0,0,1-1,1,3.93,3.93,0,0,1-2.8-.63c-.26-.2-.86-1-.5-1.42s1.58-2.13,2.15-2.84c.31-.39,2.58-.16,4.15-.72.61-.21,3.36-1.18,3.58-1.73s.44-.66.29-1a5.64,5.64,0,0,0-1-1.38c-.43-.48-2.8-2.5-1.65-4,.74,0,3.5.31,2.29,0a13.42,13.42,0,0,0-3.58-.08,9.19,9.19,0,0,1-2.72-.32,16.36,16.36,0,0,1-4.37-3.23,33.11,33.11,0,0,0-5.08-3.87,5.61,5.61,0,0,1-1.28-.63c-.29-.24-.25-.7-.68-1.57a38.77,38.77,0,0,0-3.19-4.91c-.43-.31-1.93,2.61-2.29,3.4a2.84,2.84,0,0,0,0,2.05,2.65,2.65,0,0,1-.21,2.76c-.36.48.14.55.42,1s-.28,1.89-.64,2.52-.79,1-1.07,1-.72-1-1.08-1.58a1.9,1.9,0,0,1-.07-1.73A2.9,2.9,0,0,0,59,65.21c0-.47-.65-.86-.72-1.5a2.73,2.73,0,0,1,.58-1.81,34.71,34.71,0,0,0,1.78-4.58,15.1,15.1,0,0,1,.51-2.45,1.59,1.59,0,0,1,2.14-.63c.5.32,3.77,2,3,1.48A14,14,0,0,1,66,54.08c-.13.15-1.78-2.35-2.07-2.68s-.72-.87-1.29-.39S59,54.16,59.45,54.79s-.43,1.5-.43,1.5-.16.82.36,1.11c1.57.87-.06,2.77-.15,3a15.48,15.48,0,0,1-1.64-.08c-.1,0-1.43-1.82-1.36-2.29s.29-1.1.36-1.5a2.07,2.07,0,0,0-.29-1.18c-.07-.12,0-.43.29-.87.64-.87,1.57-2.29,2.36-3.16s2.65-3.94,3-4.1.58-.56,1-.32,2.1,1.26,2.1,1.26L64,45.89c-.21-.47-.47-1.44-.19-1.51s.72-.08,1.29.63-1.45-2.51-1.81-3.07a4.36,4.36,0,0,1-.48-1.51,3.89,3.89,0,0,1,1.43.87c.36.47-.59-1.33-.88-1.8s-.83-1.36-.55-1.6,1-.45.48-1.16a21.93,21.93,0,0,1-1.41-3.34c-.21-.55,1.86.24,1.86.24-.57-.71-3.59-5.65-3.29-6.31s2.77,1.28,2.26.57-4.8-6.45-4.05-7.2,1.42.18,1.44.15-.05-.09-.22-.31c-.72-.95-3.51-4.18-2.93-4.89s.57-.71,1.5,0,.72.11-.24-.7c-2.2-1.83-2.56-3.31-2.55-3.33a8.68,8.68,0,0,1,4.73,2.23c-1.76-2-6.68-7.69-6.31-8.15.58-.71,5.58,2.76,7.59,4.66A62.34,62.34,0,0,1,69,20.14a82.87,82.87,0,0,1,4.29,10.58,9.87,9.87,0,0,1,1.15.4,11,11,0,0,1,3.08,2.05,12.9,12.9,0,0,1,2.07,3,19.11,19.11,0,0,1,1.43,4.5,19.34,19.34,0,0,1,.15,4.49,14.88,14.88,0,0,1-.58,3,9.12,9.12,0,0,1-.57,1.19c0-.49-.18.91.14,2.13A12.4,12.4,0,0,0,81,53.79a21.39,21.39,0,0,0,2.11-2.07c.86-1.11,1.36-3.6,1.29-5.92a75.23,75.23,0,0,0-.86-8.13,27.37,27.37,0,0,1-.36-6.87,27.26,27.26,0,0,1,2.29-7.5,39.29,39.29,0,0,1,5.51-7c1.72-1.66,2.36-2.29,4.51-4.11a73.54,73.54,0,0,1,8.87-5.6,41.07,41.07,0,0,1,6.52-2.76c1.43-.4,7.41-2.14,8.3-2.14,1.29,0,0,1.43-.65,1.9S115.7,6,114.77,6.73c-.72.54.21.94.93.79a.9.9,0,0,1,.93,1.34c-.36.71-5.37,5.36-4.58,5.21s2-.24,2.22.55-6.16,5.29-5.44,5.05,1,.87.86,1.26a9.2,9.2,0,0,1-2.79,2.53c-1.08.55-2.65,1.42-1.72,1.42s-.64,1.89-1.29,2.53-2.43,2.39-2.29,2.76c.36.95-.57,2.13-1.72,3.08s-1.73,1.12-1.14,1.57S98.6,36.4,98,37.11s-2.12,1.66-1.14,1.66c1.28,0,.64,1.66.07,2.21s-1.93,1-1.5,1.74-.22,1.5-.79,1.89-1.75,0-.79.63c.5.32-1.57,2.45-1.57,2.77,0,.79-1,1.26-1,2,0,1.77-2.79,1.89-2.64,2.29.33.91-.5,1.5-1.15,1.81s-1.79.48-1.14,1.11-2,1.87-1.65,1.81a14,14,0,0,0,3.79,1c.86,0,5.94.08,6.3.16a15.74,15.74,0,0,1,3.65,2.6,8.89,8.89,0,0,1,1.36,2.45,4.14,4.14,0,0,0,2.58-3.16Z"/><path class="cls-3" d="M82.62,73.42l.2.47A6.64,6.64,0,0,0,84,75.39a5.64,5.64,0,0,1,1,1.38,2,2,0,0,1-.17,1.38c-.22.55-.93.87-1.58,1.15s-1.5.47-2.11.71-1.43.27-2,.43a3.36,3.36,0,0,1-1.26.08c-.57,0-.42-.12-.85.08s-.33.35-.47.75a4.66,4.66,0,0,1-.79,1.1,10.33,10.33,0,0,1-.71.79c-.36.44-.11.24-.11.59s.14.28.61.6a3.82,3.82,0,0,0,1.57.51,1.77,1.77,0,0,0,1-.12c.25-.08.46-.51.57-.79a5.7,5.7,0,0,0,.11-1,4,4,0,0,1,.28-1c.11-.32.22-.28.54-.28s1,.08,1.21.08.18-.12.4-.24a17.84,17.84,0,0,1,1.89-.82,23.76,23.76,0,0,1,2.4-.56c.54-.12,1.54-.19,1.86-.23a.53.53,0,0,0,.47-.32.87.87,0,0,0,.18-.47c0-.16-.33-.48-.72-.91s-.25-.51-.46-1.15a2.67,2.67,0,0,1,0-1.42,4.07,4.07,0,0,1,.93-1.57,3.18,3.18,0,0,1,1.53-.71h1c0,.09.07.18.1.27a26.14,26.14,0,0,0,1.68,3.55A7.44,7.44,0,0,0,94,79.1a3.43,3.43,0,0,1,1.14,1.58,5,5,0,0,1,.11,1.54,9.16,9.16,0,0,1-.54,2c-.28,1.06-.89,2.25-1.18,3a3.46,3.46,0,0,1-1,1.46c-.33.31-.68.51-1.08.9s-.28.44-.36.75.15.52.29.75.22,0,1,.12a4.28,4.28,0,0,0,1.89-.19c.29-.12.4-.24.43-.4a2.48,2.48,0,0,0,0-.79c0-.39.18-.51.29-.83s.32-.43.5-.67.14-.39.14-.75,0-.94,0-1.34a14.2,14.2,0,0,1,.5-1.66c.18-.75.32-1.22.43-1.73a7.05,7.05,0,0,1,.82-1.62,2.66,2.66,0,0,0,.25-1.42,1.6,1.6,0,0,0-.32-1.19c-.25-.27-.29-.55-.72-.9s-.35-.71-.68-1.27-.14-1.14-.1-1.85a2.43,2.43,0,0,1,.42-1.26h1A5.12,5.12,0,0,0,96.63,75a3.17,3.17,0,0,0,.18,1.62A8.24,8.24,0,0,0,98,78.35a1.88,1.88,0,0,1,.39,1.18,13.92,13.92,0,0,1,0,1.7c-.07.39-.14,1-.14,1a4.89,4.89,0,0,0-.94.75c-.35.39-.17.55-.28,1a7.11,7.11,0,0,1-.4,1.54,7,7,0,0,0-.39,1.27,6.4,6.4,0,0,0,.11,1.42,1.37,1.37,0,0,1-.47,1,2,2,0,0,0-.5.87.61.61,0,0,0,.15.55c.14.2.14.16-.08.4a7.11,7.11,0,0,1-.89.94c-.43.36-.79.24-1.61.4s-.68,0-1.4,0a2.24,2.24,0,0,1-.89-.2c-.36-.08-.25-.35-.36-.79A2.25,2.25,0,0,1,90.48,90a5.48,5.48,0,0,1,1.07-1.3,9.48,9.48,0,0,1,.93-1c.25-.2.18-.32.36-.75s.65-1.22.86-1.78a18.34,18.34,0,0,0,.61-3.31,3.36,3.36,0,0,0-.68-2A9.71,9.71,0,0,0,92,78.66c-.43-.31-.32-.59-.82-1.38a9.31,9.31,0,0,1-.86-2.17c-.06-.16-.15-.38-.26-.61l-.24,0a6.34,6.34,0,0,0-1.15.39c-.79.28-.75.72-.93,1.07a2.72,2.72,0,0,0-.14,1.22c0,.44.82,1.31,1,1.62s.1.48-.11.91-.4.47-.72.79-.39.24-1.36.43-2,.28-2.9.52a7.62,7.62,0,0,0-2.18.9,1.93,1.93,0,0,1-.54.36c-.17.08-.5,0-.93,0s-.32.24-.39.51-.07.63-.14,1.11a1.46,1.46,0,0,1-.61,1,3.78,3.78,0,0,1-1.32.6,3.38,3.38,0,0,1-1.29-.16,3.34,3.34,0,0,1-1.29-.91c-.54-.51-.36-.55-.65-1.07s.11-.86.36-1.14.79-1,1-1.22a6.36,6.36,0,0,0,.75-1.19c.29-.47,1.15-.43,1.61-.39a7.33,7.33,0,0,0,1.51-.16,5.94,5.94,0,0,0,1.1-.24c.29-.08.61-.23,1.72-.59a4.23,4.23,0,0,0,1.93-1c.29-.31-.1-.9-.35-1.38s-.9-.9-1.29-1.38a6,6,0,0,1-.79-1.34l-.17-.35Z"/><path class="cls-3" d="M56.93,54.4l-.09.11c-.32.44-.41.54-.4.55s.12,0,.19.08A2.4,2.4,0,0,1,57,56.41c-.07.39-.43.63-.5,1.1s.21.71.57,1.5c.24.53.29.67.38.73l.19.06a7.73,7.73,0,0,0,1.55-.08l.14-.32c.08-.22.2-.53.32-.78.21-.48.07-.64-.43-.95s-.5-.79-.58-1.19.36-.86.36-.86.57.07.14-.56a.68.68,0,0,1-.11-.67H60l-.19.27c-.29.39.07.55,0,.95s-.43.55-.5.86.36.4.71.79l.18.18.11-.26a3.32,3.32,0,0,0,.21-1.42c0-.47-.35-.86.08-1.26l.13-.11H62l-.2.11c-.5.32-.71.47-.71,1a5.38,5.38,0,0,1-.15,1.5,10.83,10.83,0,0,1-.71,2.52c-.36.63-.5,1.58-.93,2.29a2.86,2.86,0,0,0-.65,1.82c.08.63.65,1,.65,1.5a1.85,1.85,0,0,1-.22,1,1.91,1.91,0,0,0,0,1.74c.36.63.43,1.1.72,1.18s.36.16.71-.47a4.5,4.5,0,0,0,.72-1.42c.07-.47-.07-.63-.36-1.11s-.5-.86-.14-1.34.64-.63.64-1a4.47,4.47,0,0,0-.5-1.27,2,2,0,0,1,0-1.73,25.69,25.69,0,0,0,1-2.85c.22-.71.22-1.18.72-1.49s.64-.4,1.07-.08a8.16,8.16,0,0,1,1.58,2.13c.43.79,1.29,2.37,1.72,3.23s.5,1.35.78,1.58.43-.08,1,.16a14.12,14.12,0,0,1,2.65,1.66A24.56,24.56,0,0,1,74,67.38a14.66,14.66,0,0,0,2.15,2.21,5.16,5.16,0,0,0,2.14,1.1A9.27,9.27,0,0,0,81,71a12.93,12.93,0,0,1,3.51.16,8.07,8.07,0,0,1,2.29.71,7,7,0,0,1,1.36,1A10.62,10.62,0,0,0,84.9,72C84,72,83.16,72,82.42,72a4.18,4.18,0,0,0-.1.51,2.66,2.66,0,0,0,.3,1h-1c-.18-.42-.31-.8-.47-1.11L81,72a11.37,11.37,0,0,1-3.29-.31,17.71,17.71,0,0,1-3.86-3.08,25.2,25.2,0,0,0-3.37-3.08,18.35,18.35,0,0,0-2.5-1.18,5.12,5.12,0,0,1-.58-.16s-1.14-2.53-1.64-3.55a8.68,8.68,0,0,0-1.36-2.29c-.43-.4-.86-.79-1.15-.71s-.5.87-.71,1.34-.65,1.42-.79,1.82-.43.55-.14,1.18a3.71,3.71,0,0,1,.5,1.66,5.94,5.94,0,0,1-.5,1.18,2.08,2.08,0,0,0,.07.87c.14.32.79.87.57,1.26A21.6,21.6,0,0,1,61,69.51c-.43.55-.72.79-1,.87s-.21,0-.64-.56a6.07,6.07,0,0,1-1.15-2c-.07-.55-.28-.79,0-1.18a6.68,6.68,0,0,0,.58-1.11l-.43-.63c-.22-.31-.72-.71-.5-1.42s.5-1.82.71-2.29l.15-.33c-.28,0-.91-.08-1.29-.14s-.58-.4-.86-.79-.29-1.26-.57-1.66A1.28,1.28,0,0,1,56,57a4.51,4.51,0,0,1,.43-.71,5.36,5.36,0,0,1-.51-1,1.13,1.13,0,0,1,.16-.82Zm7.9,0c.3.19.61.39.88.58,0-.15,0-.33,0-.54l0,0h.8a7.58,7.58,0,0,0-.1,1c.75.51,3.47,3,4,3.51s.57.71-.14.4A8.49,8.49,0,0,1,68.08,58c-1-.79-1.72-1.34-2.72-2s-1.79-1.18-2.29-1.5l-.06,0Zm15.82,0a4.49,4.49,0,0,1-.69.35,18.59,18.59,0,0,1-3.15.63s1.06-.45,2.13-1Zm7.18,0a4.72,4.72,0,0,1-.86.35c-.57.16.15.71-.35,1.18s-.51.87-1.15,1h-.06a3.3,3.3,0,0,0,.45.26,3.8,3.8,0,0,0,1.58,0c.82,0,2.93,0,4,0a11,11,0,0,1,2.5.12,7.47,7.47,0,0,1,3.15,1.46,9.27,9.27,0,0,1,2.4,2.53,5.63,5.63,0,0,1,.67,1.39l.11,0a3.36,3.36,0,0,0,1.4-2.17,10.81,10.81,0,0,0,.47-3.28c-.09-.45-.57-1.81-.9-2.83h.94a11.7,11.7,0,0,1,.49,1.33,6.88,6.88,0,0,1,.4,2.29,9,9,0,0,1-.43,2.17,11.75,11.75,0,0,1-1.19,1.94,8.79,8.79,0,0,1-.85.94l-.24.22.08.25.19.09a1.44,1.44,0,0,0,1.18.27,3.12,3.12,0,0,0,1.86-.86,5.86,5.86,0,0,0,1.18-2.41c.18-1.07.25-2.29.36-3s.15-1.34.29-1.86.34-1.1.45-1.41h.87a35.94,35.94,0,0,0-.64,3.9,10.66,10.66,0,0,1-.93,3.75c-.61,1.06-.83,1.62-1.29,1.93s-.75.75-1.29.71a8.74,8.74,0,0,1-1.57-.19,2.57,2.57,0,0,0-.41-.11,15.47,15.47,0,0,1,.09,3,8.29,8.29,0,0,1-1,2.76,10.37,10.37,0,0,1-1.93,2.37,4.1,4.1,0,0,0-.65.87h-1l.22-.4a18.85,18.85,0,0,1,2-2.53A7.34,7.34,0,0,0,99.93,67a15.78,15.78,0,0,0-.65-3.67,9,9,0,0,0-1.39-2.45,12.34,12.34,0,0,0-2-2,4.2,4.2,0,0,0-1.18-.59,12.38,12.38,0,0,0-2.4-.12c-1,0-3,0-3.83,0A11.4,11.4,0,0,1,86,58.1c-.57-.12-.54-.31-.93-.55a1.75,1.75,0,0,1-.48-.44,3.48,3.48,0,0,0-1.16.4,9.2,9.2,0,0,0-2.8,2.37l-.28.63a2.08,2.08,0,0,1,.21-1.5,3.61,3.61,0,0,1,1.79-1.82c1.08-.55,2.72-.94,3.08-1.26s1-1-.15-.63a10.94,10.94,0,0,1-2.71.71s.14-.24,1.28-.79l1.75-.82Zm18,0a3.59,3.59,0,0,0-.26.27,8.36,8.36,0,0,0-.71,1.06c-.11.2-.07.36-.22.36s-.21.12-.25-.16a4.62,4.62,0,0,1-.07-1.26c0-.09,0-.18,0-.28Zm-16.44,19,.15,0,.06,0-.09-.18c-.22-.44-.4-.87-.65-1.34a7,7,0,0,0-1.39-1.66c-.5-.44-.75-.83-1.4-1.34a5.3,5.3,0,0,1-1-1.23c-.35-.43-.17-.51-.17-.51s0,.12.57.51.82.52,1.54,1a11.49,11.49,0,0,1,2.11,2.13,11,11,0,0,1,1.33,2.65Z"/><path class="cls-3" d="M56.07,54.4a1.23,1.23,0,0,1,.13-.2s1.93-2.45,2.51-3.16,2.07-2.84,2.57-3.55.5-.79,1.07-1.11.79.08,1.44.32a2.15,2.15,0,0,1,.57.34,5.82,5.82,0,0,1-.93-1.92c-.29-1.19-.36-.87-.07-1.19a.6.6,0,0,1,.57-.23,11.46,11.46,0,0,1-1.22-2.05A7.86,7.86,0,0,1,62.35,40s.22-.32.51-.24a.55.55,0,0,1,.25.12,8.1,8.1,0,0,1-.9-1.78c-.14-.63-.28-.79.07-.86l.79-.16a30.91,30.91,0,0,1-1.43-3c-.22-.71-.29-.87-.14-1.19s0-.39.5-.23a7.42,7.42,0,0,1,1.07.47,32.42,32.42,0,0,1-1.72-2.84A14.17,14.17,0,0,1,60.21,28a8.77,8.77,0,0,0-.36-1.1.61.61,0,0,1,.57-.32,8.79,8.79,0,0,1,1,.08s-2.14-3.16-2.71-4.34-1-1.82-.79-2.21.79-.24.79-.24l.28.08s-2-2.84-2.36-3.47-.43-.79-.29-1.19.43-.39.72-.47a1.18,1.18,0,0,1,.57,0,11.14,11.14,0,0,1-2-2.05,2.4,2.4,0,0,1-.36-1.11c0-.31-.14-.47.36-.47a4.15,4.15,0,0,1,1.64.31c.5.24,1.22.56,1.22.56s-1.86-2.29-2.58-3.16-1.36-1.58-1.78-2.13-.79-1-.51-1.34.08-.63,1.22-.32a20.75,20.75,0,0,1,5.08,2.84,58.2,58.2,0,0,1,4.65,4.74c.65.79,2.87,3.79,3.51,4.89a74.17,74.17,0,0,1,3.51,6.87C72.16,26,73,28.15,73.23,29c.12.48.2.9.24,1.16a4.35,4.35,0,0,1,.76.22,10.64,10.64,0,0,1,4,3,20.69,20.69,0,0,1,2,3.16,28.87,28.87,0,0,1,1.4,5.92,21.32,21.32,0,0,1-.4,5.17,23.23,23.23,0,0,1-.86,2.16,2.88,2.88,0,0,1-.13.41,4.45,4.45,0,0,0,.06.46,7.59,7.59,0,0,0,.47,1.58,4.59,4.59,0,0,0,.42.71,7.71,7.71,0,0,0,2.58-4.65A54.22,54.22,0,0,0,83,36.83c-.79-4.1-.5-4.42-.36-6.08a24.7,24.7,0,0,1,1.93-7.42,43.19,43.19,0,0,1,7.23-9.07,62.2,62.2,0,0,1,8.37-6.16,72.67,72.67,0,0,1,9-4.42,55.08,55.08,0,0,1,8.37-2.29c1.94-.24,3.29-.39,2.44.87a18.16,18.16,0,0,1-3.15,3.31c-.72.56-1.86,1.66-1.86,1.66a2.48,2.48,0,0,1,1.71-.16c.72.32,1,.79.22,2a22.17,22.17,0,0,1-2.86,3.39c-.79.71-1.29,1.26-1.29,1.26s1.14-.07,1.5.24.72.87-.36,2.05a26.15,26.15,0,0,1-3.5,3,7.28,7.28,0,0,0-.79.63s.86.79.29,1.5a10.3,10.3,0,0,1-2.51,2.45c-1.14.71-1.86,1.18-1.86,1.18a1.84,1.84,0,0,1-.57,2c-1,1.1-3.08,3.08-3.08,3.08s1,1,.29,1.89-2.8,2.84-2.8,2.84a1.74,1.74,0,0,1-.35,1.82l-1.58,1.89s.93.48.79,1a7.14,7.14,0,0,1-1.43,2.29c-.64.63-1,1-1,1s.64.56-.07,1.42a10.36,10.36,0,0,1-1.44,1.43,1.67,1.67,0,0,1-.64,1.5c-.79.63-1,.78-1,.78s.29.56-.5,1.19-.65.55-.65.55.43.55.08.95A7.17,7.17,0,0,1,89.48,52a1.23,1.23,0,0,1-.36,1.57,10.08,10.08,0,0,1-1.29.83H85.57c.73-.35,1.41-.66,1.76-.84.65-.31,2.15-1.5.5-1.1a15.94,15.94,0,0,0-2.93.95c-.36.15-.29-.32.07-.56a15.69,15.69,0,0,1,1.86-.79c1.15-.47,3-1.18,3.58-1.5S91.48,49.38,90,50s-2,1-2.36,1.11-1.15,0-.43-.32,2.72-1.34,3.29-1.66,2.15-1.58.93-1.1l-2.5,1c-.43.15-1.22.15-.29-.24a36.63,36.63,0,0,0,3.86-2c.72-.48,1.72-1.58.65-1.27a14.15,14.15,0,0,0-2.94,1.35c-1,.55-.86.71-1.14.63s-.36-.16.28-.63a8.35,8.35,0,0,1,2.37-1.42,14.12,14.12,0,0,0,2.57-1.11c.58-.39,1.58-1.5.29-1.1A26.17,26.17,0,0,0,90.62,45a2.81,2.81,0,0,1-.86.4,4.47,4.47,0,0,1,1.36-1.19,33,33,0,0,1,2.94-1.89,9.73,9.73,0,0,0,2.72-1.9c.57-.55.79-1.65-.15-1.34a16.8,16.8,0,0,0-3.07,1.74,15.45,15.45,0,0,0-2.15,1.73c-.36.4-.79.87-.79.56s.15-.56.65-1,2.86-2.29,3.72-3a30.9,30.9,0,0,0,2.72-2.21c.64-.71,1.36-1.74.64-1.66a5.89,5.89,0,0,0-2.14,1,16.73,16.73,0,0,0-2.87,2.29c-.35.47-1.07,1.34-1.14,1s.36-.94,1.5-1.89,2.22-2,3.29-2.76a28,28,0,0,0,2.79-2.13c1.15-.95,1.58-1.19,1.65-1.58s.07-.55-.36-.48a5.21,5.21,0,0,0-2,.79c-1.08.64-3,2-3.58,2.37a18.2,18.2,0,0,1-2.22,1.42c-.43.16-.64.16-.5-.16s.86-.47,1.65-1.1,4.15-3.16,5.72-4.1a20.75,20.75,0,0,0,3.58-2.77c.64-.63,1.72-2.05.79-2.05a2.57,2.57,0,0,0-1.58.39c-.71.32-4.58,2.61-5.44,3.16s-2,1.42-2.29,1.5-.64-.16.07-.55,5.37-3.47,6.59-4.11l5.08-2.6A6.9,6.9,0,0,0,109.37,21c.15-.4-.07-1-.78-.79a47.46,47.46,0,0,0-7.09,3.31A29,29,0,0,1,98,25.31c-.78.47-1.21,1-1.5.71s-.5-.08.57-.71,6.59-3.78,7.73-4.34c2.08-1,3.58-1.9,5.16-2.77A14.15,14.15,0,0,0,113.74,15c.14-.4.07-1-.72-.79a11,11,0,0,0-2.86,1.1c-1.22.63-6.15,3.43-6.94,4-1.15.87-4.51,2.84-4.8,3.08s-.76.15-.14-.4a60.28,60.28,0,0,1,5.8-3.63c.78-.47,5.36-3.47,6.44-4.26S115.74,9.68,116.1,9s.64-1.42-.07-1.26a18.1,18.1,0,0,0-4,1.42c-.64.47-5.72,3.71-6.8,4.5s-3,2-3.79,2.68l-1.58,1.26a23.76,23.76,0,0,1,1.79-1.89c1.29-1.19,8.66-6.47,10.53-7.74s5.29-4.1,5.93-4.58,2-1.65,1.15-1.42S112.52,3.6,111.09,4a40,40,0,0,0-6.44,2.68,72.37,72.37,0,0,0-8.8,5.6c-2.15,1.82-2.79,2.45-4.51,4.11A36.6,36.6,0,0,0,86,23a26.61,26.61,0,0,0-2.15,7.42,27.63,27.63,0,0,0,.08,6.86,75.55,75.55,0,0,1,1,8.13c.07,2.33-.43,5.13-1.29,6.24a13.06,13.06,0,0,1-3,2.72H78.94a13.6,13.6,0,0,0,1.73-1,8.77,8.77,0,0,1-.92-2.1,8.34,8.34,0,0,1-.65-3.07c0-1.58-.11-5-.07-6.2a13.15,13.15,0,0,0-.57-4,11.23,11.23,0,0,0-2-3.56,14.82,14.82,0,0,0-2.65-2.13c-.79-.43-1.18-.59-1.18-.59s-.22-.16.14-.16a2.93,2.93,0,0,1,1.5.36,12.31,12.31,0,0,1,2.08,1.38,14.68,14.68,0,0,1,2,2.56,12.53,12.53,0,0,1,1,2.53A23.94,23.94,0,0,1,79.85,43c0,1.38.15,3.12.18,3.9,0,.26,0,.7.07,1.18a2.43,2.43,0,0,0,.18-.39A15.46,15.46,0,0,0,81,44.57a17.34,17.34,0,0,0-.25-4.19,17.55,17.55,0,0,0-1.39-4.18,11.93,11.93,0,0,0-2-2.92,9,9,0,0,0-2.68-1.93,9.15,9.15,0,0,0-2.18-.56c-.31,0-.57,0-.71,0a5.9,5.9,0,0,1,0,1,1.39,1.39,0,0,1-.14.47s-.25,0-.25-.12a3,3,0,0,0,0-1.14,3.39,3.39,0,0,0-1.07-1.38v.55c0,.32-.07.47.07.71a1.16,1.16,0,0,1,.15.67,2.5,2.5,0,0,1-.11.55,3.08,3.08,0,0,1-.66-.87,1.79,1.79,0,0,0-.24.12,1,1,0,0,0-.46.56,4,4,0,0,0-.25.83c0,.19-.14.27-.5.43s-.5.16-.72.47a2.9,2.9,0,0,0-.53,1.07,2.45,2.45,0,0,0-.11,1.38,4.36,4.36,0,0,1,.32,1.42,15.86,15.86,0,0,1,0,2,7.88,7.88,0,0,1-.32,1.74,6.3,6.3,0,0,1-.68,1c-.14.19-.14.27,0,.47a3,3,0,0,0,.57.63c.26.2.47.44.61.52s.07.35.07.35a1.57,1.57,0,0,1-1-.39,3,3,0,0,1-.79-1c-.14-.32-.28-.55-.07-.75a2.46,2.46,0,0,0,.61-.75,9.5,9.5,0,0,0,.32-2.13c0-.87.21-1,.07-1.42s-.57-1-.54-1.62a7.15,7.15,0,0,1,.43-2.05c.25-.67.25-.95.68-1.23s.79-.47,1-.63a.73.73,0,0,0,.25-.43,1.72,1.72,0,0,1-.79-.67c-.22-.44-.54-.63-.57-1.15a3.21,3.21,0,0,0-.11-.71s.07-.2.5,0a2.09,2.09,0,0,1,1,.59c.4.4.57.79.72.91a.54.54,0,0,0,.32.12l.09,0a.59.59,0,0,1,0-.14,3.84,3.84,0,0,1,.07-1.62,4.08,4.08,0,0,1,.36-.71c.14-.15.36-.31.43-.11s0,.27.21.67a6.91,6.91,0,0,0,.61.71,2.55,2.55,0,0,1,.32.46,6.09,6.09,0,0,1,1.56-.06A97.93,97.93,0,0,0,68.58,20c-1.64-2.76-5-7.66-7-9.55S57.49,6.76,56.2,6.28s-1.57-.71-1.57-.23-.08.08.64.87,2.93,3.39,4.22,4.89,6,8,6.16,8.52-.07.64-.36.08a44.61,44.61,0,0,0-3.51-4.73,24.35,24.35,0,0,0-3.58-3c-1.14-.71-1.57-.87-2-.87-.21,0-.3,0-.3,0s.08.09.23.34a33.15,33.15,0,0,0,2.22,2.52c.86.95,1.43,1.58,2.5,2.92S64.5,22,65.22,23.1s1.14,1.65.86,1.5-1.22-1.74-1.72-2.29-2.29-2.76-3-3.55A17.14,17.14,0,0,0,59,16.47c-.93-.71-1.14-.79-1.43-.71s-.21.15,0,.55,1.79,2.76,2.5,3.71,2.65,3.39,3.3,4.42,2.43,3.31,2.43,3.31-.14.56-.43.08S63.43,25.23,62.5,24A21.08,21.08,0,0,0,60,21.28c-.64-.55-.86-.71-1-.39s-.28.23.22.87,3.14,5.13,3.65,5.84,2.86,4.57,2.86,4.57,0,.24-.43-.31S63.5,29.65,63,29a5.4,5.4,0,0,0-1.65-1.42c-.57-.32-.64-.08-.28.55s2.72,5.13,3.29,5.84,1.29,1.82,1.29,1.82-.07.47-.43,0a9.21,9.21,0,0,0-1.15-1.19c-.78-.79-1.07-1.1-1.5-1.18s-.5-.16-.29.39a14.11,14.11,0,0,0,1.15,2.61c.5.71,1.72,3.07,1.72,3.07s.07.48-.58-.39-1.14-1.42-1.43-1.18.07.79.36,1.26S64.86,42,64.86,42s-.21,0-.57-.47a5.12,5.12,0,0,0-1.08-1,1.33,1.33,0,0,0,.22,1c.36.55,1.43,2.52,1.64,3s.72,1.42.72,1.42-.07.23-.64-.48-.86-1-1.15-.94-.07.47.14.94l1,2.08a4.34,4.34,0,0,0,.81.53,15.07,15.07,0,0,0,1.85.63,11,11,0,0,1,.73-1.34c.57-.87.82-1.19,1.11-1.66A14,14,0,0,0,70.8,43.5c.21-.71.54-1.66.64-2.17a6.84,6.84,0,0,1,.18-.71,1.61,1.61,0,0,1,.18,1,8.41,8.41,0,0,1-.57,2.44,8,8,0,0,1-.93,2c-.5.75-1,1.61-1.54,2.44s-.89,1.78-1.25,2.45a7.9,7.9,0,0,0-.93,2.6c0,.27,0,.58-.08.88h-.8a9.94,9.94,0,0,0-.7-1.07,11.7,11.7,0,0,0-1.5-1.82c-.57-.47-.57-.24-.86,0s-.86.87-1.64,1.66a6.7,6.7,0,0,0-1,1.23H59a.67.67,0,0,1,.26-.28s.86-1.11,1.43-1.74a22.64,22.64,0,0,1,1.93-2c.57-.48,1.07,0,1.5.47s1.17,1.63,1.69,2.4a5,5,0,0,1,.17-.74,12.56,12.56,0,0,1,1.29-2.84l.07-.12a2.82,2.82,0,0,0-.42-.2c-.43-.16-1.44-.71-2.15-1a17.21,17.21,0,0,1-1.86-1.27c-.43-.23-.43,0-.79.16s-.5.79-.79,1.26a24.33,24.33,0,0,1-2.14,2.84c-.76.84-1.64,2.17-2.28,3Zm4.63,0c.42-.33,1-.54,1.3-.76a1.39,1.39,0,0,1,1.57,0c.35.18.8.46,1.26.75H63a.89.89,0,0,0-1,0Zm40.55,0c-.11-.31-.19-.59-.25-.8a7.14,7.14,0,0,1-.68-2.64,4.82,4.82,0,0,1,.5-2.45A22.82,22.82,0,0,1,102.47,46a15.67,15.67,0,0,0,1.43-2.21,2.31,2.31,0,0,0,.32-1.27,2.85,2.85,0,0,1,.29-1.5,5.45,5.45,0,0,1,.89-1.61,7,7,0,0,1,1.79-1.94c.54-.27,1.22-.51,1,.12a15.44,15.44,0,0,0-.61,1.74,6.42,6.42,0,0,0-.14,1.14,1.82,1.82,0,0,1,0,.24s0-.24.5-.59a5.22,5.22,0,0,1,1.43-.71,2.53,2.53,0,0,1,.89-.08c.18,0,.47.08.18.27a3.62,3.62,0,0,0-.82.75,5.55,5.55,0,0,0-1,1.5,3.29,3.29,0,0,0-.1.63,3.13,3.13,0,0,1,.53-.07,5,5,0,0,1,1.29,0,1.07,1.07,0,0,1,.65.32c.14.16.1.24-.15.4a4.22,4.22,0,0,0-.89.74c-.18.24-.4.64-.58,1a4.58,4.58,0,0,1-.53,1,4.39,4.39,0,0,0-.65.87,3.82,3.82,0,0,1-1.21.94,2.63,2.63,0,0,0-1,.75,3.92,3.92,0,0,0-.61,1.11,5.84,5.84,0,0,0-.1.59,5.57,5.57,0,0,1,.39-.51c.29-.36.21-.44.72-.75s.53-.4,1-.44.46,0,.89-.15a1.81,1.81,0,0,0,.68-.52c.22-.2.5-.51.47-.12a9.57,9.57,0,0,1-.25,1.74,5.4,5.4,0,0,1-.72,1.54A9,9,0,0,1,107.19,52a8.76,8.76,0,0,0-1.29.94,2.39,2.39,0,0,0-.46.63s.28-.19.71-.43a9.62,9.62,0,0,1,1.11-.59c.32-.12.75-.36.43.12a6.79,6.79,0,0,0-.82,1.61.93.93,0,0,1,0,.13H106l.05-.17a.61.61,0,0,0-.21.16h-1.47a4,4,0,0,1,.43-1.31,11.08,11.08,0,0,1,.93-1.34c.39-.47.71-.51,1.29-.83a2.52,2.52,0,0,0,.89-.71,2.32,2.32,0,0,0,.39-.71.26.26,0,0,0-.32-.08,3.5,3.5,0,0,0-.86.28,2.71,2.71,0,0,0-1.18.9c-.39.6-.82,1-.93,1.27s-.21.51-.21.51l-.15.08a4.93,4.93,0,0,1,0-.55,7.75,7.75,0,0,1,0-1.31,8.74,8.74,0,0,1,.43-2.09c.25-.43.79-1.58,1.36-1.89A9.28,9.28,0,0,0,108,45.47a6.75,6.75,0,0,0,1-1.14,7.32,7.32,0,0,0,.58-.79c.1-.2.07-.47-.22-.35a1.63,1.63,0,0,0-.79.47c-.21.27-.6.71-.6.71l-.22.16s-.07.08,0-.4a12.45,12.45,0,0,1,.1-1.66,4.16,4.16,0,0,1,.47-1.14,4.18,4.18,0,0,0,.32-.51s0-.24-.14-.08a3.1,3.1,0,0,0-.75.75c-.22.35-.72,1.06-.79,1.22a.39.39,0,0,1-.25.2s-.14,0-.14-.2a2,2,0,0,1-.08-.91c.08-.75.08-1.18.15-1.57s.2-.89.07-.79-.07,0-.4.47a6.08,6.08,0,0,0-.89,1.46,7.6,7.6,0,0,0-.39,1.26,4.6,4.6,0,0,1-.29,1.46,5.08,5.08,0,0,1-.79,1.38c-.32.4-.32.6-.89,1.31a6,6,0,0,0-1,1.42,7.35,7.35,0,0,0-.71,1.54,3,3,0,0,0,0,1.57,8,8,0,0,0,.46,2c.12.35.28.72.44,1.1ZM67.56,30.06a2.85,2.85,0,0,0,.08.4.56.56,0,0,1,.17.11l.62.68.2.25.17-.26L68.57,31,68,30.27a1.26,1.26,0,0,0-.39-.21Zm1,6.28a.69.69,0,0,1,.32-.44.85.85,0,0,1,.42-.11,1.09,1.09,0,0,1,.5.14c.13.08.22.26.06.26h-.31l.1,0a.33.33,0,0,1,.15.16c.17-.08.26,0,.36,0s0,.18-.17.26l-.05,0H70c.09,0,0,.18-.17.26s-.29.21-.49.32a.53.53,0,0,1-.49.11c-.3,0-.33-.22-.33-.22l.22-.18a.17.17,0,0,1-.07-.12,2.11,2.11,0,0,1,.38-.29c.12,0,.3-.06.47-.1a1,1,0,0,0-.51.08,4.41,4.41,0,0,1-.45.25l-.23.18a1.31,1.31,0,0,1,.06-.32,1.26,1.26,0,0,1,.15-.33Zm0,7.28-.13,0a.36.36,0,0,0,0,.32l-.36-.07c-.13,0-.13-.18-.16-.4s0-.25.13-.43,0-.16.14-.3.46-.14.66-.18.45.36.45.36A.52.52,0,0,1,69,43a2.4,2.4,0,0,1,.15.19.58.58,0,0,1-.29.11.44.44,0,0,0-.32.15.45.45,0,0,0,0,.16Zm-.63.59h.5c.43,0,.64,0,.93-.16a1.6,1.6,0,0,0,.44-.37l0-.12c.07-.43.1-1.54.25-2.09s0-.83.26-1.06a.66.66,0,0,1,.23-.38,1.46,1.46,0,0,0,.25-.24.27.27,0,0,1-.17.06,1.05,1.05,0,0,1-.4,0,2.08,2.08,0,0,1,.23-.62.87.87,0,0,1,.31-.47,3.09,3.09,0,0,1,.86-.23c.36-.08.53-.08.71-.32s.47-.59.68-.91.29-.43.5-.47a1.9,1.9,0,0,1,.58,0s.14.2-.07.28l-.07,0s.14.2-.07.28-.4,0-.61.39a7.26,7.26,0,0,1-.68,1.22c-.25.24-.15.4-.58.44s-.62-.07-.89.06a5.91,5.91,0,0,1,.75-.05.26.26,0,0,1,0,.32l-.07.08a.26.26,0,0,1-.07.22,2.1,2.1,0,0,1-.5.47,3.17,3.17,0,0,0-.5.45c0,.36-.07,1.07-.07,1.35s0,.75,0,1.1,0,.43-.14.65c0,.13-.07.25-.29.44s-.43.47-1,.43a5.92,5.92,0,0,1-1.14-.15.39.39,0,0,1-.25-.36h.28a.42.42,0,0,1-.14-.3Z"/></g></svg>