<svg id="Слой_1" data-name="Слой 1" xmlns="http://www.w3.org/2000/svg" viewBox="0 0 9.14 7.74"><defs><style>.cls-1{fill:#808183;}.cls-1,.cls-2,.cls-3{fill-rule:evenodd;}.cls-2{fill:#93969a;}.cls-3{fill:#68003d;}</style></defs><title>qatar-logo</title><path class="cls-1" d="M23.87,21l2.25-.14a20,20,0,0,0-2.11,0l-.34.07S23.71,21,23.87,21Zm-.5.56,3.7-.08-3.58-.13c-.47,0-.74,0-.78.09S22.87,21.64,23.37,21.6Zm-1.31.71,5.59-.19-5-.07c-.38,0-.58,0-.58.12Zm.38.75,5.61-.25L22,22.71c-.16,0-.25.06-.26.13S21.92,23.08,22.44,23.06Zm-.81.64,6.64-.17-6.14-.17c-.4,0-.61.06-.64.21S21.53,23.69,21.63,23.7Zm-.06.67,2.1,0L24,24h-2.1q-.48,0-.42.21C21.45,24.31,21.49,24.37,21.57,24.37Zm.47.71,1.33-.1.18-.3-1.57,0q-.45,0-.45.18c0,.09,0,.15.11.16Zm.21.63,3.38-.13-.24-.24-3.26,0-.34,0a.14.14,0,0,0,0,.16C21.77,25.7,21.94,25.75,22.25,25.71Zm3.83.42-3.37,0c-.41,0-.59.05-.58.17s.27.19.7.15l3.46-.08Z" transform="translate(-21.44 -19.79)"/><path class="cls-2" d="M26.5,26.82l-3.62,0c-.08,0-.12,0-.12.1s.26.17.75.14l3.35-.12Zm-2.28.7,2-.06-2.07-.08c-.28,0-.42,0-.42.08Z" transform="translate(-21.44 -19.79)"/><path class="cls-3" d="M29.86,20.09a35.4,35.4,0,0,0-4.2,2.48,20.17,20.17,0,0,1,3-1.39l1.63-.54.31,0c.07,0,0,.1-.25.16a20.68,20.68,0,0,0-2.12.89,7.63,7.63,0,0,0-2.07,1.16l1.37,0a1,1,0,0,1-.71.4h-.26a1.71,1.71,0,0,0,1.47.81l.46,0,0,.35-1.93.19,1.87.12q0,.42,0,.42H26.5l1.73.26-.1.44L26.57,26l1.38.15-.32.44-.85.12.66.14-.72.5a11.91,11.91,0,0,1-1.15-1.28l-.51-.7-.7.15c.61-.44.94-.77,1-1a3.59,3.59,0,0,0-.08-.78l-.25.26a1.76,1.76,0,0,0-.17-.71l-.09.29-.42.37.3,0a2.3,2.3,0,0,1-1.24,1.93l-.39-.4.27-.23-.4.12-.08-.12a9.09,9.09,0,0,1,.93-1.36l1.15-1.05a18.47,18.47,0,0,1,1.8-1.34,21.84,21.84,0,0,1,3.18-1.69c.25-.1.35-.08.29,0Z" transform="translate(-21.44 -19.79)"/></svg>