<svg xmlns="http://www.w3.org/2000/svg" viewBox="0 0 14.67 15.34"><defs><style>.cls-1{fill:none;stroke:#cf4037;stroke-miterlimit:2.61;stroke-width:2.19px;}.cls-2{fill:#cf4037;fill-rule:evenodd;}</style></defs><title>Ресурс 1</title><g id="Слой_2" data-name="Слой 2"><g id="Слой_1-2" data-name="Слой 1"><path class="cls-1" d="M1.09,7.67A6.43,6.43,0,0,1,7.34,1.09a6.42,6.42,0,0,1,6.24,6.58,6.42,6.42,0,0,1-6.24,6.58A6.43,6.43,0,0,1,1.09,7.67Z"/><path class="cls-2" d="M9.22,6.23c-.29-2-2-3.05-3-3.65a5.1,5.1,0,0,0-1.86-.75A5.08,5.08,0,0,1,6.15,5.76a4.88,4.88,0,0,1-4.34,5L2,11c3.12-.5,11.45-2.08,11.45-2.08l0-.18L8.37,8.52A3.27,3.27,0,0,0,9.22,6.23Z"/></g></g></svg>